<svg width="182" height="46" fill="none" xmlns="http://www.w3.org/2000/svg"><path d="M106.672 13.296h-4.32a.793.793 0 00-.795.794v11.825c0 1.484-.496 2.685-1.488 3.602-.992.918-2.29 1.376-3.895 1.376-1.604 0-2.78-.445-3.612-1.333-.832-.889-1.249-2.103-1.249-3.647V14.087a.793.793 0 00-.795-.793h-4.32a.793.793 0 00-.795.793v12.875c0 2.767.816 5.007 2.45 6.726 1.633 1.72 3.837 2.577 6.61 2.577 3.037 0 6.182-1.254 7.094-4.608v1.812a2.361 2.361 0 002.365 2.36h2.75c.44 0 .795-.355.795-.794V14.09a.793.793 0 00-.795-.794zm37.663 4.978c1.196 0 2.278.312 3.241.94a5.686 5.686 0 011.896 2.075.795.795 0 00.96.379l3.929-1.36a.795.795 0 00.451-1.108c-.949-1.878-2.267-3.367-3.954-4.462-1.925-1.251-4.102-1.878-6.523-1.878-3.444 0-6.319 1.122-8.623 3.362-2.307 2.243-3.458 5.022-3.458 8.34 0 3.316 1.154 6.098 3.458 8.338 2.304 2.243 5.181 3.362 8.623 3.362 2.421 0 4.598-.627 6.523-1.878 1.687-1.095 3.005-2.584 3.954-4.462a.795.795 0 00-.451-1.108l-3.929-1.36a.799.799 0 00-.96.379 5.762 5.762 0 01-1.896 2.097c-.963.64-2.042.96-3.241.96-1.691 0-3.107-.603-4.245-1.811-1.138-1.21-1.708-2.714-1.708-4.52 0-1.807.57-3.267 1.708-4.476 1.138-1.208 2.554-1.811 4.245-1.811m34.477-4.976h-4.32a.793.793 0 00-.795.794v11.825c0 1.484-.496 2.685-1.488 3.602-.991.918-2.291 1.376-3.895 1.376s-2.779-.445-3.612-1.333c-.832-.889-1.248-2.103-1.248-3.647V14.087a.794.794 0 00-.796-.793h-4.32a.793.793 0 00-.795.793v12.875c0 2.767.817 5.007 2.453 6.726 1.633 1.72 3.837 2.577 6.61 2.577 3.036 0 6.181-1.254 7.094-4.608v1.812a2.361 2.361 0 002.365 2.36h2.75c.44 0 .795-.355.795-.794V14.09a.793.793 0 00-.795-.794M74.586 30.655H66.41c1.808-2.015 2.261-7.551 2.394-11.995h5.78v11.995zm7.552 0h-1.642v-16.43a.917.917 0 00-.92-.915H68.118c-1.4 0-2.635-.17-3.723.846-1.074 1.005-1.058 2.497-1.127 3.02-.087.678-.161 1.553-.275 2.78-.82 8.914-2.355 10.699-2.355 10.699h-1.371c-.636 0-1.15.513-1.15 1.148v5.305a2.685 2.685 0 002.688 2.682h1.983a.94.94 0 00.942-.939v-3.01h13.422v1.267a2.685 2.685 0 002.69 2.682h2.314a.94.94 0 00.941-.939v-7.236a.958.958 0 00-.96-.957" fill="#FF8200"/><path d="M132.487 34.437l-8.873-10.093 8.607-9.95a.663.663 0 00-.503-1.097h-4.161c-.851 0-1.662.373-2.211 1.023l-7.571 8.916V14.09a.793.793 0 00-.795-.793h-4.32a.793.793 0 00-.795.793v20.945c0 .44.355.794.795.794h4.32c.44 0 .795-.355.795-.794v-9.58l7.839 9.242a3.211 3.211 0 002.447 1.131h3.792a.84.84 0 00.634-1.39z" fill="#FF8200"/><path d="M46.118 23c0 12.703-10.326 23-23.06 23C10.327 46 0 35.703 0 23S10.323 0 23.059 0s23.059 10.297 23.059 23z" fill="#fff"/><path d="M6.635 34.828c3.68 5.075 9.662 8.379 16.422 8.379 6.759 0 12.74-3.304 16.421-8.38-5.056 1.609-10.604 2.498-16.422 2.498-5.817 0-11.365-.889-16.421-2.497z" fill="#97D700"/><path d="M19.19 24.285h6.404v-9.394h-4.526c-.106 3.48-.459 7.815-1.875 9.394" fill="#FF8200"/><path d="M32.26 30.705a.737.737 0 01-.74.735h-1.81a2.104 2.104 0 01-2.106-2.1v-.994H17.09v2.356a.736.736 0 01-.737.735H14.8a2.105 2.105 0 01-2.105-2.1v-4.155a.9.9 0 01.901-.9h1.074s1.201-1.398 1.843-8.38c.088-.963.149-1.648.218-2.18.053-.41.042-1.576.883-2.365.85-.798 1.819-.663 2.916-.663h8.974c.397 0 .718.32.718.716v12.87h1.286c.417 0 .753.336.753.751v5.674zM23.057 2.79c-11.19 0-20.26 9.048-20.26 20.206 0 3.759 1.032 7.274 2.825 10.29 5.372 1.504 11.261 2.34 17.437 2.34 6.176 0 12.062-.833 17.437-2.34a20.063 20.063 0 002.825-10.29c0-11.158-9.072-20.206-20.26-20.206" fill="#FF8200"/></svg>